<?xml version="1.0" encoding="utf-8"?>
<!-- Generator: Adobe Illustrator 28.2.0, SVG Export Plug-In . SVG Version: 6.00 Build 0)  -->
<svg version="1.1" id="Layer_1" xmlns="http://www.w3.org/2000/svg" xmlns:xlink="http://www.w3.org/1999/xlink" x="0px" y="0px"
	 viewBox="0 0 1150 400" style="enable-background:new 0 0 1150 400;" xml:space="preserve">
<style type="text/css">
	.st0{fill:none;stroke:#000000;stroke-miterlimit:10;}
	.st1{fill:#214A7C;}
	.st2{fill:#721F45;}
	.st3{fill:#39B54A;}
</style>
<rect class="st0" width="1150" height="400"/>
<g>
	<path class="st1" d="M105.5,131.2c23.7,0,41,10.5,52.4,25.8v-7.6c0-8.8,6.4-15.2,15.2-15.2h15.5v142.3c0,50.1-28.4,75.3-80.2,75.3
		c-34.3,0-57.4-12-68.2-20.2l3.2-6.7c4.4-9.4,14.1-11.4,23.1-8.2c9.7,4.1,22.8,9.1,39.8,9.1c33.1,0,51.5-14.9,51.5-50.7v-12.6
		c-11.4,14.9-28.7,24.9-52.4,24.9c-39.8,0-70.3-29.9-70.3-77.9C35.2,161.3,65.6,131.2,105.5,131.2z M158.2,209.6
		c0-29.6-14.3-50.9-44.5-50.9c-30.7,0-47.4,21.4-47.4,50.9c0,28.7,16.7,50.4,47.4,50.4C143.8,260,158.2,238.3,158.2,209.6z"/>
	<path class="st2" d="M207.7,134.1h15.5c8.8,0,15.2,6.4,15.2,15.2v18.4c8.8-16.7,24.6-34.8,56.8-34.8v17c0,8.8-5.6,15.5-14.9,16.1
		c-5,0.9-10.8,2.6-15.2,5.3c-16.4,7.3-26.6,26.4-26.6,57.1v43.3c0,8.8-6.4,15.2-15.2,15.2h-15.5L207.7,134.1L207.7,134.1z"/>
	<path class="st1" d="M367.8,131.2c47.4,0,79.9,35.1,79.9,79.1c0,44.2-32.5,79.6-79.9,79.6s-79.6-35.4-79.6-79.6
		C288.2,166.3,320.4,131.2,367.8,131.2z M319.2,210.2c0,30.2,17.3,51.5,48.6,51.5s48.6-21.4,48.6-51.5c0-29.9-17.3-50.9-48.6-50.9
		S319.2,180.3,319.2,210.2z"/>
	<path class="st1" d="M477.1,147.6l30.2,78.8l40.1-92.2h10l39.5,92.2l30.2-78.8c3.5-8.5,10.2-13.5,19-13.5h21.4L605,286.9h-10.5
		L552,193.2l-42.4,93.7H499l-62.1-152.8H458C466.8,134.1,473.8,139.1,477.1,147.6z"/>
	<path class="st1" d="M778.1,271.7v-9.1c-11.4,16.1-29.3,27.2-52.4,27.2c-39.8,0-70.3-30.7-70.3-79.4c0-48.6,32.5-79.4,70.3-79.4
		c23.1,0,41,10.5,52.4,26.4V87.1c0-8.8,6.4-15.2,15.2-15.2h15.5v215h-15.5C784.5,286.9,778.1,280.5,778.1,271.7z M734,261.8
		c28.1,0,45.1-22.3,45.1-50.9c0-29.6-17-51.5-45.1-51.5c-28.4,0-47.1,22-47.1,51.5C686.8,239.5,705.5,261.8,734,261.8z"/>
	<path class="st1" d="M925.1,274.3v-9.7c-11.7,19-31.3,24.6-51.5,24.6c-32.5,0-57.1-17-57.1-48s28.1-49.8,63.8-49.8
		c16.4,0,29,2.6,44.2,7.3c0-28.7-14.3-40.7-39.8-40.7c-11.4,0-22.8,2.6-33.4,6.1c-9.1,2.9-18.4-0.6-20.5-10.5l-1.8-8.7
		c7-3.8,29.3-14.1,58.3-14.1c47.1,0,67.6,25.8,67.6,67.6v88.5h-17C929.9,286.9,925.1,281.7,925.1,274.3z M881.8,265.3
		c17,0,42.7-10,42.7-36.9v-8.5c-13.2-4.7-23.1-7-38.1-7c-25.8,0-39.5,11.4-39.5,26.9C847,257.4,864.8,265.3,881.8,265.3z"/>
	<path class="st1" d="M1099.3,134.1h15.5v142.3c0,50.1-28.4,75.3-80.2,75.3c-34.3,0-57.4-12-68.2-20.2l3.2-6.7
		c4.4-9.4,14.1-11.4,23.1-8.2c9.7,4.1,22.8,9.1,39.8,9.1c33.1,0,51.5-14.9,51.5-50.7v-12.3c-11.1,13.5-29,24.9-52.1,24.9
		c-36.9,0-60.6-24.9-60.6-64.4v-89H986c9.1,0,16.1,6.7,16.1,15.8v67.3c0,26.9,13.8,42.2,37.8,42.2c26.6,0,44.2-19,44.2-44.5v-65.6
		C1084.1,140.5,1090.5,134.1,1099.3,134.1z"/>
	<polygon class="st3" points="251.4,136.8 220.8,97.9 131.8,128.5 244.4,48.2 	"/>
</g>
</svg>
